# xmcd
#
# Track frame offsets:
#	150
#	16352
#	35064
#	55451
#	74220
#	101541
#	125626
#	143729
#	162682
#	183635
#	206900
#	223203
#	246371
#	270095
#	288888
#	308395
#	323340
#	341227
#
# Disc length: 4797 seconds
#
# Revision: 0
# Processed by: cddbd v1.5.2PL0 Copyright (c) Steve Scherf et al.
# Submitted via: audiograbber 1.83.01
#
DISCID=2012bb12
DTITLE=Vincent, Paul - L.O.V.E. - CD 3 -V- Ballads, Blues 'N' Stuff
DYEAR=2015
DGENRE=Blues
TTITLE0=Back On The Road Life
TTITLE1=Spread Your Wings
TTITLE2=Dead And Gone
TTITLE3=Have A Little Faith In Me
TTITLE4=Ain't It So?
TTITLE5=Not In My Wildest Dreams
TTITLE6=Here I Am Crying
TTITLE7=Goodbye, Old Windy City
TTITLE8=Count On Me
TTITLE9=I Can't Sleep
TTITLE10=The World We Live In
TTITLE11=Daydreamin'
TTITLE12=Run To Me
TTITLE13=You Are So Far Away
TTITLE14=What If I Said
TTITLE15=You Gave Me A New Life
TTITLE16=Too Bad
TTITLE17=Life Will Go On
EXTD=
EXTT0=
EXTT1=
EXTT2=
EXTT3=
EXTT4=
EXTT5=
EXTT6=
EXTT7=
EXTT8=
EXTT9=
EXTT10=
EXTT11=
EXTT12=
EXTT13=
EXTT14=
EXTT15=
EXTT16=
EXTT17=
PLAYORDER=
